<svg width="202" height="29" viewBox="0 0 202 29" fill="none" xmlns="http://www.w3.org/2000/svg">
<path d="M24.604 3.11719C24.7544 3.28906 24.8296 3.47705 24.8296 3.68115C24.8296 4.05713 24.5449 4.57813 23.9756 5.24414C23.5459 5.69531 23.1162 6.15186 22.6865 6.61377C21.8164 9.07373 21.0161 11.7217 20.2856 14.5576C19.4155 17.9092 18.9644 20.3638 18.9321 21.9214C19.1147 22.4155 19.2061 22.7485 19.2061 22.9204C19.2061 23.3501 18.8086 23.8335 18.0137 24.3706C17.8633 24.4673 17.7183 24.5156 17.5786 24.5156C17.396 24.5156 17.2241 24.4189 17.063 24.2256C16.9556 24.1074 16.8535 23.9893 16.7568 23.8711C16.5957 23.7637 16.5957 23.3018 16.7568 22.4854C15.8115 19.9932 14.4849 17.1465 12.7769 13.9453C11.3052 11.1953 10.2524 9.42285 9.61865 8.62793C9.17822 10.0459 8.37793 12.2319 7.21777 15.186C6.60547 16.7651 5.98779 18.3389 5.36475 19.9072C5.65479 19.7998 6.10596 20.3477 6.71826 21.5508C6.78271 21.6689 6.81494 21.7656 6.81494 21.8408C6.81494 22.0234 6.65918 22.1201 6.34766 22.1309C6.55176 22.1201 6.29395 22.1147 5.57422 22.1147C4.9082 22.1147 4.34424 22.3457 3.88232 22.8076C3.88232 22.8076 3.74805 23.1138 3.47949 23.7261C3.28613 24.1772 3.01221 24.4028 2.65771 24.4028C2.51807 24.4028 2.35693 24.3652 2.17432 24.29C1.07861 23.8496 0.536133 23.4146 0.546875 22.9849C0.568359 22.4263 1.41699 21.6421 3.09277 20.6323C3.97363 19.0532 5.09619 16.5127 6.46045 13.0107C7.55615 10.2178 8.27051 8.25732 8.60352 7.12939C7.85156 5.92627 7.0835 5.10449 6.29932 4.66406C5.99854 4.50293 5.73535 4.42236 5.50977 4.42236C5.04785 4.42236 4.43018 4.7124 3.65674 5.29248C3.45264 5.44287 3.25391 5.51807 3.06055 5.51807C2.81348 5.51807 2.68994 5.40527 2.68994 5.17969C2.68994 4.98633 2.80273 4.78223 3.02832 4.56738C4.20996 3.42871 4.94043 2.75195 5.21973 2.53711C5.82129 2.05371 6.33154 1.83887 6.75049 1.89258C7.40576 1.96777 8.26514 2.74658 9.32861 4.229C9.5542 3.67041 9.61865 3.24072 9.52197 2.93994C9.51123 2.88623 9.50586 2.83789 9.50586 2.79492C9.50586 2.65527 9.56494 2.58545 9.68311 2.58545C9.88721 2.58545 10.1987 2.7627 10.6177 3.11719C10.8325 3.2998 10.9399 3.55225 10.9399 3.87451C10.9399 4.14307 10.8701 4.48682 10.7305 4.90576C10.6123 5.21729 10.4995 5.53418 10.3921 5.85645C11.853 7.89746 13.3623 10.3359 14.9199 13.1719C16.3486 15.793 17.3101 17.8071 17.8042 19.2144C18.1802 16.7759 19.0933 12.7476 20.5435 7.12939C20.2749 6.95752 19.9365 6.69434 19.5283 6.33984C19.3457 6.14648 19.2544 5.98535 19.2544 5.85645C19.2544 5.67383 19.437 5.59863 19.8022 5.63086C20.1782 5.65234 21.0967 4.73389 22.5576 2.87549C22.8906 2.46729 23.1699 2.26318 23.3955 2.26318C23.707 2.26318 24.1099 2.54785 24.604 3.11719ZM42.6992 5.58252C42.3125 8.93408 41.2007 12.5811 39.3638 16.5234C36.9683 21.7012 34.3203 24.3491 31.4199 24.4673C30.8613 24.4888 30.3296 24.4458 29.8247 24.3384C29.2446 24.231 28.9922 24.0859 29.0674 23.9033C27.3057 23.4736 26.0864 22.9741 25.4097 22.4048C24.4751 21.6206 24.0347 20.4121 24.0884 18.7793C24.1958 15.6641 25.125 12.3286 26.876 8.77295C28.2832 5.91553 29.6421 3.88525 30.9526 2.68213C31.5005 2.17725 32.0054 1.9248 32.4673 1.9248C32.9292 1.9248 33.3965 2.05371 33.8691 2.31152C34.0625 2.41895 34.6748 2.81641 35.7061 3.50391C36.5439 2.59082 37.2583 1.93018 37.8491 1.52197C38.2036 1.28564 38.5688 1.16748 38.9448 1.16748C39.5786 1.16748 40.1479 1.48438 40.6528 2.11816C41.5444 2.17187 42.1191 2.29004 42.377 2.47266C42.6885 2.67676 42.8442 3.10645 42.8442 3.76172C42.8442 4.1377 42.7959 4.74463 42.6992 5.58252ZM40.5562 4.229C40.6099 3.42334 40.4219 3.02051 39.9922 3.02051C39.6484 3.02051 39.1328 3.26221 38.4453 3.74561C36.8984 4.80908 35.0293 6.37744 32.8379 8.45068C32.5908 8.68701 32.3706 8.81055 32.1772 8.82129C31.9946 8.84277 31.9033 8.76221 31.9033 8.57959C31.9033 8.40771 31.9839 8.20361 32.145 7.96729C33.0796 6.50635 34.0356 5.23877 35.0132 4.16455C34.4546 3.74561 33.9551 3.53613 33.5146 3.53613C33.2461 3.53613 33.0098 3.6167 32.8057 3.77783C31.6133 4.64795 30.2651 6.57617 28.7612 9.5625C26.9673 13.0967 26.1348 16.1958 26.2637 18.8599C26.3174 19.9448 26.5269 20.7666 26.8921 21.3252C27.2144 21.8086 27.7891 22.2598 28.6162 22.6787C29.2715 23.0117 29.916 23.146 30.5498 23.0815C32.7412 22.8452 34.9111 20.6055 37.0596 16.3623C39.1006 12.3232 40.2661 8.27881 40.5562 4.229ZM75.4736 3.11719C75.5488 3.18164 75.5864 3.25684 75.5864 3.34277C75.5864 3.55762 75.4146 3.66504 75.0708 3.66504C75.0063 3.66504 74.9043 3.6543 74.7646 3.63281C74.6357 3.61133 74.5337 3.60059 74.4585 3.60059C73.9536 3.60059 73.4434 4.09473 72.9277 5.08301C70.833 9.14355 69.4688 14.1978 68.835 20.2456C69.082 19.7837 69.4097 19.166 69.8179 18.3926C69.936 18.1562 70.0811 18.0381 70.2529 18.0381C70.457 18.0381 70.5591 18.1724 70.5591 18.4409C70.5591 18.5698 70.5215 18.7202 70.4463 18.8921C69.9736 20.0093 69.5386 21.6152 69.1411 23.71C69.0444 24.1719 68.835 24.4028 68.5127 24.4028C68.1475 24.4028 67.5942 24.1235 66.853 23.5649C66.4985 23.2964 66.2944 23.0815 66.2407 22.9204C66.1763 22.77 66.1816 22.4585 66.2568 21.9858C66.6436 19.6548 67.1431 17.0283 67.7554 14.1064C68.4644 10.7656 68.98 8.79443 69.3022 8.19287C68.1743 9.5249 66.7886 11.48 65.145 14.0581C63.5337 16.5933 62.1265 19.0049 60.9233 21.293C61.1382 21.959 61.2456 22.4585 61.2456 22.7915C61.2456 23.2104 60.8911 23.7476 60.1821 24.4028C59.8169 24.7466 59.5752 24.9185 59.457 24.9185C59.3389 24.9185 59.022 24.4888 58.5063 23.6294C58.2808 23.2642 58.168 22.9741 58.168 22.7593C58.168 22.6089 58.3237 22.2437 58.6353 21.6636C57.9478 19.1069 56.6963 15.9917 54.8809 12.3179C53.7207 15.2397 52.5444 17.9038 51.3521 20.3101C52.1255 21.1802 52.5122 21.7656 52.5122 22.0664C52.5122 22.3027 52.2437 22.4531 51.7065 22.5176C50.5786 22.6465 49.6333 23.2266 48.8706 24.2578C48.8062 24.5908 48.645 24.7573 48.3872 24.7573C48.022 24.7573 47.458 24.4297 46.6953 23.7744C46.459 23.5703 46.3408 23.4038 46.3408 23.2749C46.3408 23.1567 46.4375 23.0117 46.6309 22.8398C47.3506 22.2168 48.1724 21.6152 49.0962 21.0352C51.0942 17.7158 52.7217 14.2246 53.9785 10.5615C52.668 7.68262 51.0405 5.67383 49.0962 4.53516C48.7739 4.3418 48.4678 4.24512 48.1777 4.24512C47.7695 4.24512 47.3398 4.45459 46.8887 4.87354C46.4697 5.32471 46.0508 5.78125 45.6318 6.24316C45.3955 6.51172 45.1538 6.646 44.9067 6.646C44.7134 6.646 44.6167 6.54932 44.6167 6.35596C44.6167 6.25928 44.6489 6.14648 44.7134 6.01758C46.1636 3.10645 47.5493 1.67773 48.8706 1.73145C50.439 1.78516 52.4746 3.72949 54.9775 7.56445C55.5898 6.16797 55.896 4.90576 55.896 3.77783C55.896 3.19775 55.9819 2.90771 56.1538 2.90771C56.3149 2.90771 56.6909 3.13867 57.2817 3.60059C57.4536 3.74023 57.5342 4.03027 57.5234 4.4707C57.502 5.0293 57.0024 6.65674 56.0249 9.35303C57.9155 13.0269 59.3496 16.3784 60.3271 19.4077C64.1191 13.1128 67.5298 8.19824 70.5591 4.66406C70.9351 3.80469 71.397 2.95605 71.9448 2.11816C72.1812 1.75293 72.4658 1.57031 72.7988 1.57031C73.3037 1.57031 74.1953 2.08594 75.4736 3.11719ZM92.6826 2.87549C92.0166 3.83154 91.3882 6.39355 90.7974 10.5615C90.2817 14.2461 90.04 17.1196 90.0723 19.1821C90.1152 21.2446 90.4536 22.2759 91.0874 22.2759C91.2056 22.2759 91.3721 22.2329 91.5869 22.147C91.8125 22.061 91.9844 22.0181 92.1025 22.0181C92.3174 22.0181 92.4248 22.0986 92.4248 22.2598C92.4248 22.3779 92.3442 22.5068 92.1831 22.6465C91.646 23.1191 90.8242 23.6455 89.7178 24.2256C89.4492 24.3652 89.2183 24.4351 89.0249 24.4351C87.9722 24.4351 87.5962 21.771 87.897 16.4429C85.3188 16.5933 82.8857 16.8027 80.5977 17.0713L77.4072 20.9707C77.9766 20.9062 78.1914 20.874 78.0518 20.874C78.5674 20.874 78.9648 21.4004 79.2441 22.4531C79.3193 22.7002 79.3569 22.8936 79.3569 23.0332C79.3569 23.291 79.2441 23.4199 79.0186 23.4199C78.9111 23.4199 78.75 23.3931 78.5352 23.3394C78.3311 23.2856 78.1699 23.2588 78.0518 23.2588C77.1387 23.2588 75.9087 23.7476 74.3618 24.7251C73.8999 25.0151 73.6689 25.1602 73.6689 25.1602C73.583 25.1602 73.4219 25.0796 73.1855 24.9185C72.6807 24.5747 72.3262 24.1611 72.1221 23.6777C71.9932 23.3447 72.1812 23.0117 72.686 22.6787C73.3521 22.249 74.2651 21.5239 75.4253 20.5034C76.5854 19.4829 77.3428 18.7471 77.6973 18.2959C77.6006 17.3184 77.5522 16.8081 77.5522 16.7651C77.5737 16.1528 77.8047 15.7554 78.2451 15.5728C78.6318 15.4116 79.3193 15.3042 80.3076 15.2505C82.9717 12.0063 85.1147 8.8374 86.7368 5.74365C86.2104 6.02295 85.2651 6.38281 83.9009 6.82324C81.7202 7.53223 80.2163 8.03174 79.3892 8.32178C78.2183 8.74072 77.6328 9.47119 77.6328 10.5132C77.6328 10.728 77.6543 10.9644 77.6973 11.2222C77.7617 11.6196 77.6597 11.8184 77.3911 11.8184C77.1978 11.8184 77.0581 11.7324 76.9722 11.5605C76.3813 10.3252 76.0322 9.45508 75.9248 8.9502C75.8281 8.49902 75.7798 8.2627 75.7798 8.24121C75.7798 7.86523 75.957 7.52148 76.3115 7.20996C76.9561 6.66211 78.1807 6.25391 79.9854 5.98535C82.6924 5.57715 85.0234 4.93799 86.9785 4.06787C87.2148 3.83154 87.3438 3.69727 87.3652 3.66504C87.4189 3.58984 87.4727 3.44482 87.5264 3.22998C87.5908 3.01514 87.6982 2.90771 87.8486 2.90771C88.0957 2.90771 88.4663 3.1709 88.9604 3.69727C89.1216 3.87988 89.2021 4.0625 89.2021 4.24512C89.2021 4.35254 89.0195 4.72314 88.6543 5.35693C87.8594 6.76416 86.7959 8.4668 85.4639 10.4648C83.9814 12.6992 82.832 14.2837 82.0156 15.2183C84.5723 15.2183 86.5757 15.1538 88.0259 15.0249C88.1763 13.521 88.5039 11.3779 89.0088 8.5957C89.2666 7.23145 89.5244 5.86719 89.7822 4.50293C89.9434 3.34277 90.7222 2.49414 92.1187 1.95703C92.3335 1.87109 92.5107 1.82812 92.6504 1.82812C92.8867 1.82812 93.0049 1.93018 93.0049 2.13428C93.0049 2.32764 92.8975 2.57471 92.6826 2.87549ZM115.435 6.71045C115.102 9.20264 114.296 11.8936 113.018 14.7832C111.857 17.415 110.568 19.6709 109.15 21.5508C107.732 23.4199 106.594 24.3599 105.734 24.3706C104.671 24.3706 103.156 23.71 101.19 22.3887C101.04 22.2812 100.965 22.1577 100.965 22.0181C100.965 21.6743 101.164 21.5024 101.561 21.5024C101.668 21.5024 101.776 21.5293 101.883 21.583C102.689 22.0879 103.581 22.3672 104.558 22.4209C105.901 22.4854 107.62 20.5142 109.714 16.5073C111.788 12.5542 112.991 9.02539 113.324 5.9209C113.431 4.92188 112.894 4.18066 111.712 3.69727C111.422 3.58984 111.181 3.54688 110.987 3.56836C108.914 3.8584 106.911 4.61035 104.977 5.82422C103.967 8.23047 102.947 11.0771 101.916 14.3643C100.788 17.9521 99.9712 21.0566 99.4663 23.6777C99.3589 24.2148 99.1333 24.4834 98.7896 24.4834C98.6606 24.4834 98.5103 24.4458 98.3384 24.3706C97.7798 24.0806 97.4146 23.8442 97.2427 23.6616C97.0063 23.4146 96.8882 23.0762 96.8882 22.6465C96.8882 21.7441 97.0332 20.6646 97.3232 19.4077C97.3984 19.0962 97.5112 18.9404 97.6616 18.9404C97.8013 18.9404 98.1719 19.1875 98.7734 19.6816C100.234 14.708 101.62 10.4487 102.931 6.90381C100.535 8.40771 98.6875 9.85791 97.3877 11.2544C97.0869 11.5874 96.9365 11.9741 96.9365 12.4146C96.9365 12.812 97.0654 13.2632 97.3232 13.7681C97.5811 14.2729 97.71 14.563 97.71 14.6382C97.71 14.8208 97.5864 14.9121 97.3394 14.9121C97.1245 14.9121 96.9634 14.853 96.856 14.7349C95.5132 13.1558 94.8418 12.0654 94.8418 11.4639C94.8418 10.8301 95.2715 10.1265 96.1309 9.35303C97.9463 7.70947 100.578 5.89404 104.026 3.90674C104.596 2.57471 105.009 1.90869 105.267 1.90869C105.46 1.90869 105.858 2.19873 106.459 2.77881C107.05 2.51025 107.641 2.2417 108.232 1.97314C108.726 1.7583 109.129 1.65088 109.44 1.65088C109.956 1.65088 110.649 1.94092 111.519 2.521C111.562 2.47803 111.632 2.45654 111.729 2.45654C112.33 2.45654 113.249 3.01514 114.484 4.13232C115.15 4.74463 115.483 5.40527 115.483 6.11426C115.483 6.28613 115.467 6.48486 115.435 6.71045ZM122.653 1.03857C122.729 1.15674 122.621 1.49512 122.331 2.05371C121.418 3.77246 120.736 5.41064 120.285 6.96826C120.36 7.02197 120.349 7.13477 120.252 7.30664C119.887 7.71484 119.447 7.86523 118.931 7.75781C118.759 7.74707 118.673 7.61279 118.673 7.35498C118.673 7.03271 118.834 6.31299 119.157 5.1958C119.629 3.53076 120.07 2.44043 120.478 1.9248C120.682 1.66699 120.924 1.48975 121.203 1.39307C122.116 1.0708 122.6 0.952637 122.653 1.03857ZM141.796 4.32568C141.377 5.79736 140.808 7.07568 140.088 8.16064C139.766 8.64404 139.459 8.88574 139.169 8.88574C138.89 8.88574 138.401 8.65479 137.703 8.19287C137.488 8.05322 137.381 7.9082 137.381 7.75781C137.381 7.53223 137.569 7.37109 137.945 7.27441C138.224 7.18848 138.541 6.69971 138.896 5.80811C139.229 4.95947 139.395 4.29346 139.395 3.81006C139.395 3.30518 139.196 3.05273 138.799 3.05273C138.659 3.05273 138.482 3.07422 138.267 3.11719C137.848 3.18164 136.946 3.46631 135.56 3.97119C135.399 4.0249 135.254 4.05176 135.125 4.05176C134.803 4.05176 134.642 3.94434 134.642 3.72949C134.642 3.52539 134.808 3.34277 135.141 3.18164C136.344 2.58008 137.531 2.0752 138.702 1.66699C139.078 1.52734 139.347 1.45752 139.508 1.45752C139.755 1.45752 140.077 1.80127 140.475 2.48877C141.076 2.67139 141.447 2.80566 141.586 2.8916C141.823 3.03125 141.941 3.24609 141.941 3.53613C141.941 3.74023 141.893 4.00342 141.796 4.32568ZM136.978 19.1177C136.978 21.062 135.99 22.625 134.013 23.8066C133.444 24.6982 132.708 25.1387 131.806 25.1279C130.205 25.1064 128.422 24.3921 126.456 22.9849C124.77 21.7817 123.604 20.6216 122.959 19.5044C122.347 18.4624 122.041 17.8071 122.041 17.5386C122.041 17.2056 122.283 16.8296 122.766 16.4106C123.217 16.0132 123.572 15.8145 123.83 15.8145C124.077 15.8145 124.2 15.9756 124.2 16.2979C124.2 16.4375 124.173 16.6094 124.12 16.8135C124.689 18.3604 125.892 19.7998 127.729 21.1318C129.566 22.4639 131.231 23.1245 132.724 23.1138C134.045 23.103 134.706 22.2007 134.706 20.4067C134.706 19.4185 133.933 17.4473 132.386 14.4932C130.85 11.5283 130.082 9.40674 130.082 8.12842C130.082 7.29053 130.318 6.54395 130.791 5.88867C131.188 5.34082 131.886 4.69092 132.885 3.93896C133.068 3.79932 133.25 3.72949 133.433 3.72949C133.723 3.72949 133.868 3.85303 133.868 4.1001C133.868 4.27197 133.771 4.44922 133.578 4.63184C132.751 5.41602 132.337 6.37207 132.337 7.5C132.337 8.75684 133.111 10.8301 134.658 13.7197C136.205 16.6094 136.978 18.4087 136.978 19.1177ZM180.532 2.31152C180.747 2.52637 180.854 2.70361 180.854 2.84326C180.854 3.01514 180.629 3.38037 180.178 3.93896C178.996 5.3999 177.256 7.26367 174.957 9.53027C172.755 11.7002 171.262 13.0483 170.478 13.5747C171.455 14.9604 172.433 16.3516 173.41 17.748C174.903 19.8535 176.192 21.2661 177.277 21.9858C177.75 22.3081 178.174 22.4692 178.55 22.4692C178.926 22.4692 179.367 22.2866 179.872 21.9214C179.979 21.8462 180.081 21.8086 180.178 21.8086C180.403 21.8086 180.516 21.9214 180.516 22.147C180.516 22.2759 180.468 22.4102 180.371 22.5498C180.049 23.0547 179.345 23.7905 178.26 24.7573C178.013 24.9829 177.771 25.0957 177.535 25.0957C177.256 25.0957 176.939 24.9507 176.584 24.6606C175.263 23.6079 173.781 21.9268 172.137 19.6172C170.418 17.2002 169.226 15.7017 168.56 15.1216C168.216 15.2612 167.942 15.3311 167.738 15.3311C167.362 15.3311 167.153 15.0518 167.11 14.4932C167.099 14.3213 167.094 14.1763 167.094 14.0581C167.094 13.6069 167.212 13.2793 167.448 13.0752C167.695 12.8604 168.189 12.6724 168.931 12.5112C169.199 12.4575 169.403 12.5273 169.543 12.7207C170.811 11.7432 172.245 10.4272 173.845 8.77295C175.424 7.15088 176.38 6.01221 176.713 5.35693C176.037 4.95947 175.698 4.63184 175.698 4.37402C175.698 4.16992 175.892 4.0249 176.278 3.93896C176.815 3.56299 177.455 2.95605 178.196 2.11816C178.507 1.76367 178.84 1.58643 179.195 1.58643C179.603 1.58643 180.049 1.82812 180.532 2.31152ZM171.042 3.60059C169.688 6.02832 168.388 8.88037 167.142 12.1567C166.068 14.9604 165.219 17.689 164.596 20.3423C164.177 22.1255 163.989 23.2373 164.032 23.6777C164.097 23.8496 164.129 24.0054 164.129 24.145C164.129 24.3706 164.038 24.4834 163.855 24.4834C163.629 24.4834 163.264 24.29 162.759 23.9033C162.201 23.4844 161.921 23.1406 161.921 22.8721C161.921 22.7002 161.97 22.4478 162.066 22.1147C162.947 19.0103 164.043 15.7231 165.354 12.2534C166.213 10.105 167.147 7.76318 168.157 5.22803C165.085 5.97998 162.888 6.88232 161.567 7.93506C161.083 8.31104 160.842 8.6709 160.842 9.01465C160.842 9.25098 160.949 9.87939 161.164 10.8999C161.239 11.2329 161.121 11.3994 160.81 11.3994C160.595 11.3994 160.428 11.2974 160.31 11.0933C159.945 10.5132 159.569 9.66992 159.182 8.56348C159.107 8.31641 159.069 8.09082 159.069 7.88672C159.069 7.08105 159.692 6.42578 160.938 5.9209C161.379 5.73828 163.603 4.98633 167.609 3.66504C168.555 3.35352 169.199 2.98291 169.543 2.55322C169.79 2.25244 170.005 2.10205 170.188 2.10205C170.359 2.10205 170.574 2.19873 170.832 2.39209C171.133 2.60693 171.283 2.78955 171.283 2.93994C171.283 3.07959 171.203 3.2998 171.042 3.60059ZM200.609 12.8818C200.932 13.0215 201.093 13.2095 201.093 13.4458C201.093 13.7251 200.878 13.897 200.448 13.9614C199.707 14.0796 199.245 14.2837 199.062 14.5737C198.977 14.7134 198.81 15.3364 198.563 16.4429C197.639 20.6108 196.597 24.1504 195.437 27.0615C195.061 27.9961 194.535 28.4634 193.858 28.4634C193.267 28.4634 192.123 27.9209 190.426 26.8359C190.254 26.7285 190.168 26.605 190.168 26.4653C190.168 26.2397 190.324 26.127 190.635 26.127C190.753 26.127 190.952 26.1807 191.231 26.2881C191.511 26.3955 191.747 26.4492 191.94 26.4492C192.488 26.4492 192.993 26.1055 193.455 25.418C194.562 23.7637 195.738 20.627 196.984 16.0078C195.663 17.5332 194.18 18.9297 192.537 20.1973C190.334 21.8945 188.541 22.7432 187.155 22.7432C186.36 22.7432 185.71 22.4585 185.205 21.8892C184.346 21.3735 183.75 20.9062 183.417 20.4873C182.933 19.8857 182.713 19.1553 182.756 18.2959C182.885 15.9863 183.755 13.478 185.366 10.771C186.763 8.4292 188.428 6.35596 190.361 4.55127C192.23 2.82178 193.702 1.9248 194.776 1.86035C195.324 1.82812 196.162 2.22559 197.29 3.05273C197.376 2.47266 197.532 2.18262 197.757 2.18262C197.972 2.18262 198.354 2.31689 198.901 2.58545C199.105 2.68213 199.224 2.78955 199.256 2.90771C199.32 3.12256 199.299 3.6167 199.191 4.39014C199.03 5.64697 198.713 6.86084 198.241 8.03174C198.112 8.354 197.875 8.51514 197.532 8.51514C197.338 8.51514 196.946 8.45068 196.355 8.32178C195.979 8.24658 195.792 8.09082 195.792 7.85449C195.792 7.67188 195.899 7.58057 196.114 7.58057C196.167 7.58057 196.216 7.58594 196.259 7.59668C196.667 6.58691 196.919 5.49658 197.016 4.32568C197.059 3.87451 196.796 3.64893 196.227 3.64893C195.689 3.64893 195.072 3.83154 194.374 4.19678C192.343 5.29248 190.345 7.2207 188.379 9.98145C186.424 12.7422 185.27 15.2935 184.915 17.6353C184.851 18.0005 184.818 18.3335 184.818 18.6343C184.818 19.6978 185.253 20.5195 186.124 21.0996C186.36 21.25 186.645 21.3252 186.978 21.3252C188.213 21.3252 189.969 20.3853 192.247 18.5054C193.976 17.0981 195.448 15.6748 196.662 14.2354C194.459 14.4072 193.235 14.4932 192.988 14.4932C192.429 14.4932 192.037 14.4019 191.812 14.2192C191.64 14.0796 191.462 13.752 191.28 13.2363C191.215 13.0645 191.183 12.9302 191.183 12.8335C191.183 12.7046 191.242 12.6401 191.36 12.6401C191.371 12.6401 191.715 12.7529 192.392 12.9785C192.682 13.0752 193.546 13.0913 194.986 13.0269C196.318 12.9624 197.226 12.8926 197.709 12.8174C197.935 12.4199 198.219 12.2212 198.563 12.2212C198.939 12.2212 199.621 12.4414 200.609 12.8818Z" fill="#E89417"/>
</svg>
